<svg width="40" height="40" viewBox="0 0 40 40" fill="none" xmlns="http://www.w3.org/2000/svg">
<g clip-path="url(#clip0_2_34)">
<path d="M33.8617 7.48666C31.3117 6.33666 28.5783 5.48666 25.72 5.00333C25.6946 4.99844 25.6682 5.00159 25.6446 5.01234C25.621 5.02309 25.6014 5.04091 25.5883 5.06333C25.2383 5.67833 24.8483 6.48 24.575 7.11333C21.5435 6.66039 18.4615 6.66039 15.43 7.11333C15.1256 6.41143 14.7823 5.72704 14.4017 5.06333C14.3888 5.04063 14.3693 5.02241 14.3457 5.0111C14.3222 4.99978 14.2958 4.99591 14.27 5C11.4133 5.48333 8.68001 6.33333 6.12834 7.485C6.10639 7.4942 6.08778 7.50991 6.07501 7.53C0.888341 15.155 -0.533326 22.5917 0.165008 29.935C0.166951 29.953 0.172533 29.9704 0.181416 29.9861C0.190298 30.0019 0.202294 30.0157 0.216674 30.0267C3.244 32.2307 6.62057 33.9097 10.205 34.9933C10.23 35.001 10.2567 35.001 10.2817 34.9933C10.3067 34.9855 10.3287 34.9705 10.345 34.95C11.115 33.9167 11.8017 32.825 12.3883 31.6783C12.4233 31.6117 12.39 31.5317 12.32 31.505C11.2433 31.0995 10.2001 30.6103 9.20001 30.0417C9.18204 30.0314 9.16689 30.0168 9.15594 29.9993C9.14498 29.9817 9.13855 29.9617 9.13723 29.9411C9.13591 29.9204 9.13973 29.8998 9.14836 29.881C9.15699 29.8622 9.17016 29.8458 9.18667 29.8333C9.39667 29.6783 9.60667 29.5167 9.80667 29.355C9.82468 29.3405 9.84636 29.3312 9.86931 29.3283C9.89227 29.3253 9.91559 29.3288 9.93667 29.3383C16.4817 32.2783 23.57 32.2783 30.0383 29.3383C30.0595 29.3282 30.083 29.3243 30.1063 29.3269C30.1296 29.3296 30.1517 29.3387 30.17 29.3533C30.37 29.5167 30.5783 29.6783 30.79 29.8333C30.8067 29.8455 30.8201 29.8617 30.829 29.8803C30.8379 29.899 30.842 29.9195 30.841 29.9402C30.84 29.9608 30.8339 29.9809 30.8233 29.9986C30.8126 30.0163 30.7978 30.0311 30.78 30.0417C29.7833 30.615 28.7467 31.1 27.6583 31.5033C27.6416 31.5094 27.6264 31.519 27.6137 31.5314C27.601 31.5438 27.591 31.5588 27.5846 31.5754C27.5781 31.5919 27.5752 31.6097 27.5762 31.6274C27.5771 31.6452 27.5818 31.6625 27.59 31.6783C28.19 32.8233 28.8767 33.9133 29.6317 34.9483C29.6474 34.9696 29.6692 34.9854 29.6943 34.9938C29.7194 35.0021 29.7464 35.0026 29.7717 34.995C33.3623 33.9144 36.7443 32.2346 39.775 30.0267C39.7898 30.0163 39.8022 30.0029 39.8114 29.9874C39.8206 29.9719 39.8264 29.9546 39.8283 29.9367C40.6617 21.4467 38.4317 14.07 33.9133 7.53333C33.9023 7.51209 33.8839 7.49553 33.8617 7.48666ZM13.3667 25.4633C11.3967 25.4633 9.77167 23.6817 9.77167 21.4967C9.77167 19.31 11.365 17.53 13.3667 17.53C15.3833 17.53 16.9933 19.325 16.9617 21.4967C16.9617 23.6833 15.3683 25.4633 13.3667 25.4633V25.4633ZM26.6583 25.4633C24.6867 25.4633 23.0633 23.6817 23.0633 21.4967C23.0633 19.31 24.655 17.53 26.6583 17.53C28.675 17.53 30.285 19.325 30.2533 21.4967C30.2533 23.6833 28.6767 25.4633 26.6583 25.4633V25.4633Z" fill="#6980F7"/>
</g>
<defs>
<clipPath id="clip0_2_34">
<rect width="40" height="40" fill="white"/>
</clipPath>
</defs>
</svg>
