<svg width="40" height="40" viewBox="0 0 40 40" fill="none" xmlns="http://www.w3.org/2000/svg">
<path d="M39.405 8.22836C38.0133 8.84503 36.5183 9.26169 34.9467 9.45003C36.5683 8.47968 37.7816 6.95247 38.36 5.15336C36.8364 6.05834 35.1689 6.69535 33.43 7.03669C32.2606 5.78813 30.7118 4.96057 29.0239 4.68248C27.336 4.4044 25.6035 4.69135 24.0954 5.49878C22.5873 6.30622 21.388 7.58896 20.6836 9.14787C19.9792 10.7068 19.8092 12.4546 20.2 14.12C17.1128 13.965 14.0927 13.1626 11.3357 11.7649C8.57871 10.3671 6.14641 8.40529 4.19668 6.00669C3.53001 7.15669 3.14668 8.49003 3.14668 9.91003C3.14593 11.1884 3.46073 12.4471 4.06314 13.5746C4.66555 14.7021 5.53694 15.6634 6.60001 16.3734C5.36714 16.3341 4.16146 16.001 3.08334 15.4017V15.5017C3.08322 17.2946 3.7034 19.0323 4.83865 20.42C5.9739 21.8077 7.55429 22.7599 9.31167 23.115C8.16798 23.4245 6.9689 23.4701 5.80501 23.2484C6.30084 24.791 7.26667 26.1401 8.56729 27.1066C9.86791 28.0731 11.4382 28.6087 13.0583 28.6384C10.3081 30.7974 6.91149 31.9685 3.41501 31.9634C2.79564 31.9635 2.1768 31.9274 1.56168 31.855C5.1108 34.137 9.24224 35.3481 13.4617 35.3434C27.745 35.3434 35.5533 23.5134 35.5533 13.2534C35.5533 12.92 35.545 12.5834 35.53 12.25C37.0488 11.1516 38.3599 9.79152 39.4017 8.23336L39.405 8.22836V8.22836Z" fill="#69B3F7"/>
</svg>
