<svg width="24" height="24" viewBox="0 0 24 24" fill="none" xmlns="http://www.w3.org/2000/svg">
<path d="M16.3828 8.27344H15.2836C15.0445 8.27344 14.8172 8.38828 14.6766 8.58516L10.9922 13.6945L9.32343 11.3789C9.1828 11.1844 8.9578 11.0672 8.7164 11.0672H7.61718C7.46484 11.0672 7.37577 11.2406 7.46484 11.3648L10.3851 15.4148C10.4541 15.5111 10.5451 15.5896 10.6504 15.6437C10.7558 15.6978 10.8726 15.7261 10.991 15.7261C11.1095 15.7261 11.2262 15.6978 11.3316 15.6437C11.4369 15.5896 11.5279 15.5111 11.5969 15.4148L16.5328 8.57109C16.6242 8.44688 16.5351 8.27344 16.3828 8.27344V8.27344Z" fill="black"/>
<path d="M12 1.5C6.20156 1.5 1.5 6.20156 1.5 12C1.5 17.7984 6.20156 22.5 12 22.5C17.7984 22.5 22.5 17.7984 22.5 12C22.5 6.20156 17.7984 1.5 12 1.5ZM12 20.7188C7.18594 20.7188 3.28125 16.8141 3.28125 12C3.28125 7.18594 7.18594 3.28125 12 3.28125C16.8141 3.28125 20.7188 7.18594 20.7188 12C20.7188 16.8141 16.8141 20.7188 12 20.7188Z" fill="black"/>
</svg>
