<svg width="302" height="51" viewBox="0 0 302 51" fill="none" xmlns="http://www.w3.org/2000/svg">
<line x1="2" y1="39" x2="302" y2="39" stroke="#F7C757" stroke-width="4"/>
<path d="M2.346 37H7.106V26.596C7.106 23.57 8.772 21.938 11.356 21.938C13.872 21.938 15.538 23.57 15.538 26.596V37H20.298V25.95C20.298 20.748 17.204 17.892 12.954 17.892C10.438 17.892 8.33 18.912 7.106 20.51V11.84H2.346V37ZM42.6065 18.164H37.8125V28.534C37.8125 31.56 36.1805 33.192 33.5965 33.192C31.0805 33.192 29.4145 31.56 29.4145 28.534V18.164H24.6545V29.214C24.6545 34.382 27.8165 37.238 32.2025 37.238C34.5485 37.238 36.6225 36.218 37.8125 34.62V37H42.6065V18.164ZM73.653 37H78.413V25.95C78.413 20.748 75.217 17.892 70.695 17.892C67.941 17.892 65.459 19.354 64.235 21.496C62.943 19.15 60.529 17.892 57.605 17.892C55.259 17.892 53.253 18.878 52.063 20.442V18.164H47.303V37H52.063V26.596C52.063 23.604 53.729 22.04 56.313 22.04C58.829 22.04 60.495 23.604 60.495 26.596V37H65.255V26.596C65.255 23.604 66.921 22.04 69.471 22.04C71.987 22.04 73.653 23.604 73.653 26.596V37ZM81.706 27.514C81.706 33.396 85.514 37.306 90.274 37.306C93.266 37.306 95.408 35.878 96.53 34.246V37H101.324V18.164H96.53V20.85C95.408 19.286 93.334 17.858 90.308 17.858C85.514 17.858 81.706 21.632 81.706 27.514ZM96.53 27.582C96.53 31.152 94.15 33.124 91.532 33.124C88.982 33.124 86.568 31.084 86.568 27.514C86.568 23.944 88.982 22.04 91.532 22.04C94.15 22.04 96.53 24.012 96.53 27.582ZM119.165 37H123.925V25.95C123.925 20.748 120.797 17.892 116.411 17.892C113.997 17.892 111.957 18.912 110.733 20.51V18.164H105.973V37H110.733V26.596C110.733 23.57 112.399 21.938 114.983 21.938C117.499 21.938 119.165 23.57 119.165 26.596V37ZM133.211 27.616C133.211 23.978 134.911 22.89 137.733 22.89H138.991V17.892C136.373 17.892 134.401 19.15 133.211 21.088V18.164H128.451V37H133.211V27.616ZM142.198 37H146.958V18.164H142.198V37ZM144.612 15.92C146.278 15.92 147.536 14.696 147.536 13.132C147.536 11.568 146.278 10.344 144.612 10.344C142.912 10.344 141.688 11.568 141.688 13.132C141.688 14.696 142.912 15.92 144.612 15.92ZM150.436 27.514C150.436 33.396 154.244 37.306 159.038 37.306C161.996 37.306 164.138 35.844 165.26 34.212V37.136C165.26 40.638 163.22 42.134 160.602 42.134C158.222 42.134 156.454 41.012 155.978 39.312H151.252C151.728 43.63 155.434 46.282 160.738 46.282C166.926 46.282 170.054 42.236 170.054 37.136V18.164H165.26V20.85C164.138 19.218 161.996 17.858 159.038 17.858C154.244 17.858 150.436 21.632 150.436 27.514ZM165.26 27.582C165.26 31.152 162.88 33.124 160.262 33.124C157.712 33.124 155.298 31.084 155.298 27.514C155.298 23.944 157.712 22.04 160.262 22.04C162.88 22.04 165.26 24.012 165.26 27.582ZM174.703 37H179.463V26.596C179.463 23.57 181.129 21.938 183.713 21.938C186.229 21.938 187.895 23.57 187.895 26.596V37H192.655V25.95C192.655 20.748 189.561 17.892 185.311 17.892C182.795 17.892 180.687 18.912 179.463 20.51V11.84H174.703V37ZM197.93 31.152C197.93 35.47 200.344 37 203.948 37H206.94V32.988H204.73C203.234 32.988 202.724 32.444 202.724 31.186V22.074H206.94V18.164H202.724V13.506H197.93V18.164H195.686V22.074H197.93V31.152ZM224.984 31.628C224.848 24.726 214.41 26.868 214.41 23.434C214.41 22.346 215.328 21.632 217.096 21.632C218.966 21.632 220.122 22.618 220.258 24.08H224.814C224.542 20.34 221.788 17.858 217.232 17.858C212.574 17.858 209.786 20.374 209.786 23.502C209.786 30.404 220.428 28.262 220.428 31.628C220.428 32.716 219.408 33.566 217.538 33.566C215.634 33.566 214.308 32.478 214.138 31.05H209.344C209.548 34.552 212.846 37.306 217.572 37.306C222.162 37.306 224.984 34.858 224.984 31.628ZM237.187 13.268H228.891V37H237.187C244.769 37 249.699 32.342 249.699 25.168C249.699 17.96 244.769 13.268 237.187 13.268ZM233.651 32.954V17.28H237.017C242.015 17.28 244.837 20.238 244.837 25.168C244.837 30.098 242.015 32.954 237.017 32.954H233.651ZM269.378 37H274.41L265.876 13.234H260.334L251.8 37H256.798L258.362 32.478H267.814L269.378 37ZM266.522 28.67H259.654L263.088 18.742L266.522 28.67ZM300.754 25.066C300.754 17.96 295.382 12.928 288.616 12.928C281.918 12.928 276.444 17.96 276.444 25.066C276.444 32.206 281.918 37.238 288.616 37.238C295.348 37.238 300.754 32.206 300.754 25.066ZM281.34 25.066C281.34 20.238 284.298 17.212 288.616 17.212C292.9 17.212 295.858 20.238 295.858 25.066C295.858 29.894 292.9 32.988 288.616 32.988C284.298 32.988 281.34 29.894 281.34 25.066Z" fill="black"/>
</svg>
